<mxfile host="app.diagrams.net" agent="Mozilla/5.0 (Windows NT 10.0; Win64; x64) AppleWebKit/537.36 (KHTML, like Gecko) Chrome/127.0.0.0 Safari/537.36" version="24.7.6">
  <diagram name="Page-1" id="BY3ieYeZ0qpPeiHG_zAV">
    <mxGraphModel dx="1036" dy="595" grid="1" gridSize="10" guides="1" tooltips="1" connect="1" arrows="1" fold="1" page="1" pageScale="1" pageWidth="850" pageHeight="1100" math="0" shadow="0">
      <root>
        <mxCell id="0" />
        <mxCell id="1" parent="0" />
        <mxCell id="sxF51QBIcU_5WDe_KFyN-1" value="Khách hàng" style="shape=umlActor;verticalLabelPosition=bottom;verticalAlign=top;html=1;outlineConnect=0;" parent="1" vertex="1">
          <mxGeometry x="120" y="200" width="40" height="80" as="geometry" />
        </mxCell>
        <mxCell id="sxF51QBIcU_5WDe_KFyN-2" value="Thanh toán" style="ellipse;whiteSpace=wrap;html=1;" parent="1" vertex="1">
          <mxGeometry x="200" y="200" width="120" height="80" as="geometry" />
        </mxCell>
        <mxCell id="sxF51QBIcU_5WDe_KFyN-3" value="Xóa sản phẩm khỏi giỏ hàng" style="ellipse;whiteSpace=wrap;html=1;" parent="1" vertex="1">
          <mxGeometry x="400" y="160" width="120" height="80" as="geometry" />
        </mxCell>
        <mxCell id="sxF51QBIcU_5WDe_KFyN-4" value="Lựa chọn phương thức thanh toán" style="ellipse;whiteSpace=wrap;html=1;" parent="1" vertex="1">
          <mxGeometry x="400" y="260" width="120" height="80" as="geometry" />
        </mxCell>
        <mxCell id="sxF51QBIcU_5WDe_KFyN-5" value="Xác nhận thanh toán" style="ellipse;whiteSpace=wrap;html=1;" parent="1" vertex="1">
          <mxGeometry x="400" y="360" width="120" height="80" as="geometry" />
        </mxCell>
        <mxCell id="sxF51QBIcU_5WDe_KFyN-6" value="Lựa chọn thời gian giao hàng" style="ellipse;whiteSpace=wrap;html=1;" parent="1" vertex="1">
          <mxGeometry x="400" y="60" width="120" height="80" as="geometry" />
        </mxCell>
        <mxCell id="sxF51QBIcU_5WDe_KFyN-10" value="" style="endArrow=classic;html=1;rounded=0;entryX=0;entryY=0.5;entryDx=0;entryDy=0;dashed=1;dashPattern=12 12;" parent="1" source="sxF51QBIcU_5WDe_KFyN-2" target="sxF51QBIcU_5WDe_KFyN-6" edge="1">
          <mxGeometry relative="1" as="geometry">
            <mxPoint x="320" y="240" as="sourcePoint" />
            <mxPoint x="420" y="240" as="targetPoint" />
          </mxGeometry>
        </mxCell>
        <mxCell id="sxF51QBIcU_5WDe_KFyN-11" value="include" style="edgeLabel;resizable=0;html=1;;align=center;verticalAlign=middle;" parent="sxF51QBIcU_5WDe_KFyN-10" connectable="0" vertex="1">
          <mxGeometry relative="1" as="geometry" />
        </mxCell>
        <mxCell id="sxF51QBIcU_5WDe_KFyN-14" value="" style="endArrow=classic;html=1;rounded=0;entryX=0;entryY=0.5;entryDx=0;entryDy=0;dashed=1;dashPattern=12 12;exitX=1;exitY=0.5;exitDx=0;exitDy=0;" parent="1" source="sxF51QBIcU_5WDe_KFyN-2" target="sxF51QBIcU_5WDe_KFyN-4" edge="1">
          <mxGeometry relative="1" as="geometry">
            <mxPoint x="330" y="240" as="sourcePoint" />
            <mxPoint x="410" y="110" as="targetPoint" />
          </mxGeometry>
        </mxCell>
        <mxCell id="sxF51QBIcU_5WDe_KFyN-15" value="include" style="edgeLabel;resizable=0;html=1;;align=center;verticalAlign=middle;" parent="sxF51QBIcU_5WDe_KFyN-14" connectable="0" vertex="1">
          <mxGeometry relative="1" as="geometry" />
        </mxCell>
        <mxCell id="sxF51QBIcU_5WDe_KFyN-16" value="" style="endArrow=classic;html=1;rounded=0;entryX=0;entryY=0.5;entryDx=0;entryDy=0;dashed=1;dashPattern=12 12;exitX=1;exitY=0.5;exitDx=0;exitDy=0;" parent="1" source="sxF51QBIcU_5WDe_KFyN-2" target="sxF51QBIcU_5WDe_KFyN-3" edge="1">
          <mxGeometry relative="1" as="geometry">
            <mxPoint x="313" y="227" as="sourcePoint" />
            <mxPoint x="420" y="120" as="targetPoint" />
          </mxGeometry>
        </mxCell>
        <mxCell id="sxF51QBIcU_5WDe_KFyN-17" value="include" style="edgeLabel;resizable=0;html=1;;align=center;verticalAlign=middle;" parent="sxF51QBIcU_5WDe_KFyN-16" connectable="0" vertex="1">
          <mxGeometry relative="1" as="geometry" />
        </mxCell>
        <mxCell id="sxF51QBIcU_5WDe_KFyN-18" value="" style="endArrow=classic;html=1;rounded=0;entryX=0;entryY=0.5;entryDx=0;entryDy=0;dashed=1;dashPattern=12 12;exitX=1;exitY=1;exitDx=0;exitDy=0;" parent="1" source="sxF51QBIcU_5WDe_KFyN-2" target="sxF51QBIcU_5WDe_KFyN-5" edge="1">
          <mxGeometry relative="1" as="geometry">
            <mxPoint x="323" y="237" as="sourcePoint" />
            <mxPoint x="430" y="130" as="targetPoint" />
          </mxGeometry>
        </mxCell>
        <mxCell id="sxF51QBIcU_5WDe_KFyN-19" value="include" style="edgeLabel;resizable=0;html=1;;align=center;verticalAlign=middle;" parent="sxF51QBIcU_5WDe_KFyN-18" connectable="0" vertex="1">
          <mxGeometry relative="1" as="geometry" />
        </mxCell>
      </root>
    </mxGraphModel>
  </diagram>
</mxfile>
